<?xml version="1.0" standalone="no"?>
<!DOCTYPE svg PUBLIC "-//W3C//DTD SVG 20010904//EN"
 "http://www.w3.org/TR/2001/REC-SVG-20010904/DTD/svg10.dtd">
<svg version="1.0" xmlns="http://www.w3.org/2000/svg"
 width="1171.000000pt" height="1171.000000pt" viewBox="0 0 1171.000000 1171.000000"
 preserveAspectRatio="xMidYMid meet">
<metadata>
Created by potrace 1.11, written by Peter Selinger 2001-2013
</metadata>
<g transform="translate(0.000000,1171.000000) scale(0.100000,-0.100000)"
fill="#000000" stroke="none">
<path d="M4615 10397 c-2 -7 -16 -87 -31 -178 l-27 -166 1754 -3296 c965
-1813 1754 -3295 1754 -3294 1 1 -6 112 -15 247 -9 135 -15 247 -13 250 2 2
83 -35 179 -83 l176 -88 -29 52 c-15 29 -791 1485 -1723 3236 l-1695 3184
-163 74 c-105 47 -165 69 -167 62z"/>
<path d="M3985 9923 c-702 -34 -1310 -255 -1825 -663 -124 -98 -358 -330 -453
-450 -332 -417 -536 -889 -618 -1430 -21 -135 -24 -192 -24 -440 0 -321 17
-472 81 -730 271 -1103 1133 -1926 2263 -2164 919 -194 1875 4 2589 536 120
89 328 273 366 322 l23 31 -360 578 -360 578 -39 -72 c-79 -146 -161 -253
-298 -389 -272 -273 -566 -418 -960 -476 -156 -22 -429 -15 -584 16 -345 68
-625 218 -871 465 -157 156 -241 273 -334 460 -140 282 -201 542 -201 867 0
801 461 1476 1170 1711 166 55 301 78 497 84 253 8 442 -20 666 -100 53 -20
97 -34 97 -32 0 1 -165 295 -368 651 -218 385 -373 649 -382 650 -8 0 -42 -1
-75 -3z"/>
<path d="M5940 9895 c0 -2 117 -211 261 -465 l261 -460 772 0 c442 0 818 -4
881 -10 619 -57 959 -342 1015 -852 52 -470 -196 -857 -653 -1017 -202 -71
-393 -90 -881 -91 -234 0 -297 -3 -293 -12 2 -7 225 -366 494 -798 269 -432
619 -994 778 -1249 158 -255 352 -555 430 -665 l141 -201 362 -3 362 -2 0 339
0 340 -535 751 c-295 413 -538 756 -541 763 -3 8 30 24 98 46 337 110 593 265
813 492 316 326 465 727 465 1249 0 483 -131 862 -412 1188 -142 166 -322 300
-553 412 -291 142 -591 214 -990 240 -156 10 -2275 15 -2275 5z"/>
<path d="M2661 2285 c-172 -38 -311 -163 -363 -328 -27 -84 -27 -219 0 -304
51 -162 192 -289 361 -324 82 -17 234 -7 303 20 63 24 177 96 185 116 2 7 -21
54 -52 104 l-57 92 -28 -39 c-53 -73 -129 -113 -219 -114 -120 -2 -217 57
-268 160 -24 49 -28 69 -28 142 1 98 23 158 83 218 65 64 182 97 266 73 22 -6
41 -9 42 -8 2 1 -23 47 -55 102 -64 113 -64 113 -170 90z"/>
<path d="M3129 2229 l40 -74 158 -6 c87 -3 170 -11 184 -17 140 -57 138 -247
-3 -299 -18 -6 -68 -12 -110 -12 -43 -1 -78 -3 -78 -6 0 -5 207 -341 266 -432
l34 -53 55 0 55 0 0 61 c0 60 -1 62 -85 179 -47 65 -85 120 -85 122 0 3 23 15
52 28 121 54 174 149 166 296 -4 70 -9 90 -34 131 -16 26 -49 62 -72 80 -73
55 -122 65 -366 70 l-218 5 41 -73z"/>
<path d="M4233 2285 c-376 -82 -510 -570 -229 -832 102 -96 198 -133 347 -133
311 0 532 253 489 563 -40 286 -312 466 -607 402z m248 -167 c117 -55 181
-157 187 -298 5 -116 -20 -184 -97 -261 -66 -66 -124 -89 -221 -89 -87 0 -149
22 -208 75 -198 178 -136 510 111 591 62 20 163 12 228 -18z"/>
<path d="M5274 2290 c-100 -15 -190 -74 -230 -153 -10 -17 -19 -65 -22 -104
-4 -64 -1 -79 22 -128 44 -89 78 -107 357 -189 107 -32 149 -66 149 -121 0
-85 -64 -131 -180 -129 -82 1 -153 24 -231 77 l-62 40 -43 -49 c-24 -27 -43
-56 -41 -64 3 -23 118 -95 194 -121 57 -20 88 -24 188 -24 141 0 195 18 263
88 54 56 73 103 73 188 1 159 -79 226 -351 294 -148 38 -207 103 -166 184 47
90 217 94 354 7 23 -14 45 -26 49 -26 5 0 27 27 50 60 l42 59 -57 36 c-98 61
-244 92 -358 75z"/>
<path d="M6134 2290 c-100 -15 -190 -74 -230 -153 -10 -17 -19 -65 -22 -104
-4 -64 -1 -79 22 -128 44 -89 78 -107 357 -189 107 -32 149 -66 149 -121 0
-85 -64 -131 -180 -129 -82 1 -153 24 -231 77 l-62 40 -43 -49 c-24 -27 -43
-56 -41 -64 3 -23 118 -95 194 -121 57 -20 88 -24 188 -24 141 0 195 18 263
88 54 56 73 103 73 188 1 159 -79 226 -351 294 -148 38 -207 103 -166 184 47
90 217 94 354 7 23 -14 45 -26 49 -26 5 0 27 27 50 60 l42 59 -57 36 c-98 61
-244 92 -358 75z"/>
<path d="M8076 2115 c-43 -97 -138 -313 -211 -481 l-133 -305 85 3 86 3 47
110 47 110 229 3 229 2 48 -115 49 -115 85 0 c50 0 83 4 81 10 -1 5 -95 221
-208 480 l-205 470 -76 0 -76 0 -77 -175z m236 -217 c43 -100 76 -183 74 -185
-2 -2 -75 -2 -163 -1 l-160 3 80 188 c44 103 83 185 85 182 3 -3 41 -87 84
-187z"/>
<path d="M6780 1805 l0 -475 80 0 80 0 0 200 0 200 230 0 230 0 0 -200 0 -200
80 0 80 0 0 475 0 475 -80 0 -80 0 0 -195 0 -195 -230 0 -230 0 0 195 0 195
-80 0 -80 0 0 -475z"/>
<path d="M8900 1805 l0 -475 85 0 85 0 0 475 0 475 -85 0 -85 0 0 -475z"/>
<path d="M9230 2274 c0 -3 18 -36 40 -74 l40 -69 163 -3 c140 -3 167 -6 202
-24 45 -23 85 -88 85 -139 0 -17 -10 -51 -22 -75 -31 -60 -85 -87 -195 -96
-46 -4 -83 -8 -83 -10 0 -2 27 -45 60 -96 32 -51 71 -113 86 -138 15 -25 56
-89 91 -142 l64 -98 54 0 55 0 0 58 c0 56 -2 59 -89 182 l-90 125 56 26 c112
54 164 129 171 250 11 181 -88 294 -278 319 -81 10 -410 14 -410 4z"/>
</g>
</svg>
